<?xml version="1.0" encoding="UTF-8"?>
<svg width="597px" height="398px" viewBox="0 0 597 398" version="1.1" xmlns="http://www.w3.org/2000/svg">
    <title>Icon</title>
    <defs>
        <linearGradient x1="0%" y1="35.5919898%" x2="100%" y2="63.9841317%" id="linearGradient-1">
            <stop stop-color="#250E8A" offset="0%"></stop>
            <stop stop-color="#00F9F7" offset="100%"></stop>
        </linearGradient>
        <linearGradient x1="100%" y1="50%" x2="0%" y2="50%" id="linearGradient-2">
            <stop stop-color="#FFFFFF" stop-opacity="0" offset="0%"></stop>
            <stop stop-color="#06CCE2" offset="100%"></stop>
            <stop stop-color="#FFFFFF" offset="100%"></stop>
        </linearGradient>
        <linearGradient x1="100%" y1="50%" x2="0%" y2="50%" id="linearGradient-3">
            <stop stop-color="#FFFFFF" stop-opacity="0" offset="0%"></stop>
            <stop stop-color="#06CCE2" offset="100%"></stop>
            <stop stop-color="#FFFFFF" offset="100%"></stop>
        </linearGradient>
    </defs>
    <g id="Page-1" stroke="none" stroke-width="1" fill="none" fill-rule="evenodd">
        <g id="Landing-Page" transform="translate(-749.000000, -137.000000)">
            <g id="Header" transform="translate(-119.000000, -354.000000)">
                <g id="Background">
                    <g id="Icon" transform="translate(868.000000, 491.000000)">
                        <g id="Group-3" transform="translate(0.000000, 384.000000)" fill="#FFCA00">
                            <path d="M379.848509,9.70285714 L4.22776418,9.70285714 C1.89318972,9.70285714 -0.000409574468,7.72142857 -0.000409574468,5.27857143 C-0.000409574468,2.83571429 1.89318972,0.855714286 4.22776418,0.855714286 L379.848509,0.855714286 C382.183083,0.855714286 384.076683,2.83571429 384.076683,5.27857143 C384.076683,7.72142857 382.183083,9.70285714 379.848509,9.70285714" id="Fill-1"></path>
                        </g>
                        <g id="Group-6" transform="translate(402.000000, 384.000000)" fill="#FFCA00">
                            <path d="M190.736045,9.70285714 L4.4415,9.70285714 C2.10968182,9.70285714 0.218318182,7.72142857 0.218318182,5.27857143 C0.218318182,2.83571429 2.10968182,0.855714286 4.4415,0.855714286 L190.736045,0.855714286 C193.069227,0.855714286 194.959227,2.83571429 194.959227,5.27857143 C194.959227,7.72142857 193.069227,9.70285714 190.736045,9.70285714" id="Fill-4"></path>
                        </g>
                        <path d="M424.669506,0 L396.331861,0 C376.818299,0 361,15.749818 361,35.0557848 C361,50.4067191 371.003451,63.5360746 384.909888,68.2347883 L384.909888,78 L393.805033,70.1142738 C394.64002,70.171064 395.480474,70.3116874 396.331861,70.3116874 L424.669506,70.3116874 C444.180335,70.3116874 460,54.4618105 460,35.1558437 C460,15.8498769 444.180335,0 424.669506,0" id="Fill-7" fill="#FFFFFF"></path>
                        <path d="M355,137.50612 L365.784067,119 L380,125.324267 L380,169.874966 C380,173.359233 378.174896,176.599834 375.168514,178.44728 C368.324376,182.655657 355,177.814027 355,169.874966 L355,137.50612 Z" id="Fill-9" fill="#FFCA00"></path>
                        <path d="M292.290512,377 L288,386 L315,386 C314.172534,382.636776 310.992604,380.468677 307.656755,380.99172 L304.419381,381.500703 C302.162656,381.500703 300.632187,379.141384 301.499316,377 L292.290512,377 Z" id="Fill-11" fill="#FFFFFF"></path>
                        <path d="M324.291662,377 L320,386 L347,386 C346.172576,382.636776 342.994175,380.468677 339.655759,380.99172 L336.419917,381.500703 C334.164674,381.500703 332.634282,379.141384 333.5,377 L324.291662,377 Z" id="Fill-13" fill="#FFFFFF"></path>
                        <path d="M390.098356,125.893297 C392.67923,119.265495 389.647792,109.267369 381.924228,103.803341 C374.474268,98.5337281 364.450241,98.7594132 357.246663,104.359397 L356.058317,105.282531 C351.364829,108.930201 348.468152,114.418701 348.10879,120.347696 L347.66231,139.45616 L340,143.604145 L346.483493,166 L352.964263,157.755693 L363.317706,144.960975 L371.802193,147.485658 C377.089173,149.355039 382.904307,146.627783 384.852213,141.373125 L384.88216,141.290192 L386.506096,136.911084 L390.098356,125.893297 Z" id="Fill-15" fill="#FBEFE1"></path>
                        <path d="M392.143153,119.446159 L392.966766,119.168485 C393.623993,107.015819 384.458872,96.4736666 372.075558,95.1408285 C358.07691,93.6346132 345.848891,104.404324 346.001412,118.162084 C346.051328,122.732201 347.307546,135 347.307546,135 L360.464556,119.003235 L361.916278,119.488149 C371.716441,122.762 382.352696,122.747101 392.143153,119.446159" id="Fill-17" fill="#FFCA00"></path>
                        <path d="M292.984288,378 L289.533799,348.378431 C288.130418,337.453661 288.495924,316.585004 290.616679,305.777558 L293.062026,293.307114 L288.472739,262.412716 C287.233018,254.066345 288.444099,245.537166 291.958688,237.86609 L296.071999,226 L342.83363,226 L342.429937,228.268718 C340.605133,238.525014 340.866988,251.931322 343.200501,262.082572 L350.270594,288.820155 C351.199362,292.328959 351.241641,296.012386 350.394703,299.541654 L334.076479,378 L324.893813,378 L324.203716,349.094653 C323.587264,330.149563 331.213801,295.574467 331.213801,295.574467 L316.964507,260.206753 L302.166954,378 L292.984288,378 Z" id="Fill-21" fill="#FA7564"></path>
                        <path d="M320.765621,226 L342.60221,226 L342.187076,228.268718 C340.31056,238.525014 340.579836,251.931322 342.979476,262.082572 L350.249924,288.820155 C351.205012,292.328959 351.248489,296.012386 350.37755,299.541654 L333.596896,378 L324.154009,378 L323.444355,349.093288 C322.810435,330.149563 330.653094,295.574467 330.653094,295.574467 L316,260.206753 L320.765621,226 Z" id="Fill-23" fill="#FD8778"></path>
                        <path d="M387.351424,160.676822 L372.260327,192.406205 L368.751212,160.813873 L357.065941,152.194575 L352.44239,158.124413 L339.49998,144.219825 L320.508357,144.219825 L320.508357,144 C302.840466,164.728651 294.399292,191.288084 295.070672,218.593835 L295,225.636366 L327.934307,225.636366 L352.166499,246 L361.141787,238.00761 L345.634816,214.799824 L352.44239,196.752491 L359.171138,188.163046 L369.095056,216.292461 L385.43106,212.859397 L399,163.607817 L387.351424,160.676822 Z" id="Fill-27" fill="#1E389D"></path>
                        <path d="M399.363721,163 L399.363721,163 C401.184239,161.517904 402.620412,159.579469 403.544123,157.363729 L404.847055,154.231271 C405.378734,152.014185 404.494738,149.689408 402.653722,148.469809 L397.024336,144.734282 L399.382938,136.641312 C399.72885,135.451328 398.992187,134.214229 397.821213,134.024424 C396.997432,133.889811 396.186462,134.320574 395.800835,135.095948 L391.161781,144.404478 L390.703128,145.166391 C389.789666,146.690217 389.092719,148.34731 388.636629,150.08248 C388.065234,152.255143 387.875624,154.519344 388.079327,156.763352 L388.38296,160.092346 L399.363721,163 Z" id="Fill-29" fill="#FBEFE1"></path>
                        <path d="M550.377429,371.848906 L520.45103,371.848906 L520.45103,314.602959 L548.669145,314.602959 L557.671118,232.738528 C559.513331,220.155324 553.502905,207.659351 542.486525,201.25462 C532.713774,195.573642 520.293868,195.573642 510.54845,201.303688 L494.485115,210.525738 L494.485115,291.284776 L472,314.602959 L509.518013,314.602959 L509.518013,371.848906 L479.624412,371.848906 C475.528631,371.848906 472.210461,375.054679 472.210461,379.138223 C472.210461,383.221767 475.528631,386.765564 479.624412,386.765564 C483.575331,386.765564 486.796471,382.752896 487.016498,380.026898 L507.607468,380.026898 C507.827495,382.752896 511.048635,387 514.999554,387 C518.953206,387 522.17298,382.752896 522.39164,380.026898 L542.985343,380.026898 C543.20537,382.752896 546.425144,386.712407 550.377429,386.712407 C554.471844,386.712407 557.791381,383.364882 557.791381,379.281338 C557.791381,375.197794 554.471844,371.848906 550.377429,371.848906" id="Fill-31" fill="#000000"></path>
                        <path d="M465.709488,377 L470,386 L443,386 C443.827466,382.636776 447.006028,380.468677 450.343245,380.99172 L453.580619,381.500703 C455.835976,381.500703 457.366445,379.141384 456.500684,377 L465.709488,377 Z" id="Fill-33" fill="#FFFFFF"></path>
                        <path d="M440.708338,377 L445,386 L418,386 C418.828791,382.636776 422.005825,380.468677 425.344241,380.99172 L428.580083,381.500703 C430.835326,381.500703 432.365718,379.141384 431.5,377 L440.708338,377 Z" id="Fill-35" fill="#FFFFFF"></path>
                        <path d="M444.11328,379 L459.345438,313.758442 L488.714714,299.006538 L506.538882,299.006538 L521,277 L484.68042,281.00008 L446.282858,295.708607 C442.26907,297.245744 439.370831,300.765977 438.657209,304.972093 L427,379 L444.11328,379 Z" id="Fill-37" fill="#1E389D"></path>
                        <path d="M495.546857,281.303712 L464.875544,297.275565 C461.229869,299.175976 458.797138,302.766695 458.40697,306.827772 L452,379 L467.999627,379 L482.034723,308.007057 L521.14051,299.007894 C531.555943,299.007894 540,290.647171 540,280.334529 L540,277 L495.546857,281.303712 Z" id="Fill-39" fill="#212293"></path>
                        <path d="M494.125936,202.343532 L524.281036,202.343532 C532.142988,202.343532 539.395172,206.602147 543.273302,213.493212 L563,242.985384 L563,289 L548.999708,289 L548.999708,248.694031 L538.9995,237.945773 L538.9995,280.938806 L485.001084,280.938806 L489.56622,226.129789 L467.909942,246.427503 C463.191686,251.280058 455.144093,250.06214 452.049178,244.027168 L433,206.898434 L442.502908,201 L459.332527,228.541047 L478.589026,208.887791 C482.690738,204.701541 488.285705,202.343532 494.125936,202.343532" id="Fill-41" fill="#FA7564"></path>
                        <path d="M486.271926,164.90388 C486.156156,157.674723 492.403729,149.206834 501.444605,146.718312 C510.163746,144.31827 519.385009,148.067644 524.142373,155.946582 L524.925844,157.246144 C528.026072,162.379412 528.825697,168.635281 527.122793,174.415565 L521.15253,192.519565 L520.739256,203.253391 L510.477404,207 L503.528476,203.253391 L503.922904,191.690058 L496.004733,191.666555 C490.457168,191.586369 486.002692,186.93698 486.002692,181.238264 L486.002692,181.148401 L486,173.472692 L486.271926,164.90388 Z" id="Fill-43" fill="#FBEFE1"></path>
                        <path d="M513,193 L513,175 L486,175 L486.001354,180.362982 L486.001354,180.449313 C486.001354,185.839765 490.482171,190.240026 496.062541,190.315893 L504.027534,190.338129 L503.931391,193 L513,193 Z" id="Fill-45" fill="#000000"></path>
                        <path d="M515.245193,160.988311 C515.245193,160.988311 490.075956,161.37746 484,148.46768 C484,148.46768 499.070426,138.11022 515.136843,141.791211 C528.826496,145.200766 536.481867,159.764083 531.443575,172.903752 C529.7697,177.268869 526.888692,184.594843 523.674297,190 L523.674297,173.888396 L515.450781,172.347033 L514.142242,175.890921 L510.281912,175.890921 L515.245193,160.988311 Z" id="Fill-47" fill="#000000"></path>
                        <path d="M549,310 L549,310 C547.894309,310 547,309.018909 547,307.808989 L547,298.203617 L551,295 L551,307.808989 C551,309.018909 550.10444,310 549,310" id="Fill-53" fill="#FBEFE1"></path>
                        <path d="M553.062951,311 L553.062951,311 C552.000586,311 551.136884,310.089504 551.125982,308.960077 L551,295 L554.873938,295 L554.99992,308.920155 C555.009611,310.065035 554.141064,311 553.062951,311" id="Fill-55" fill="#FBEFE1"></path>
                        <path d="M558.999375,310 L558.999375,310 C557.89528,310 557,309.018909 557,307.808989 L557,295 L561,295 L561,307.808989 C561,309.018909 560.10472,310 558.999375,310" id="Fill-57" fill="#FBEFE1"></path>
                        <path d="M562.64498,304 L561.35502,304 C560.605568,304 560,303.330521 560,302.503681 L560,295 L564,295 L564,302.503681 C564,303.330521 563.394432,304 562.64498,304" id="Fill-59" fill="#FBEFE1"></path>
                        <path d="M564,296.308047 L564,292.027364 L562.397407,288.277703 L551.329217,288 L551.151875,288.169331 C548.506098,290.698456 547.316867,294.232728 547.316867,297.968843 L547,298 L564,296.308047 Z" id="Fill-61" fill="#FBEFE1"></path>
                        <polygon id="Fill-63" fill="#FFFFFF" points="593 271 520.160503 271 332 271 332 283.290323 344.295696 283.290323 334.66056 398 339.318932 398 364.413194 283.290323 375.162021 283.290323 366.63511 385.709677 370.688126 385.709677 392.833497 283.290323 491.136209 283.290323 516.229105 398 520.888843 398 511.255073 283.290323 520.160503 283.290323 559.626162 283.290323 581.771534 385.709677 585.82455 385.709677 577.297639 283.290323 593 283.290323"></polygon>
                        <path d="M116.370601,371.852389 L86.4453536,371.852389 L86.4453536,314.619604 L124,314.619604 L101.493478,291.306783 L101.493478,210.566312 L85.4138731,201.317766 C75.6585844,195.589037 63.3916271,195.559058 53.6089782,201.238731 C42.5814391,207.641989 36.4828446,220.193684 38.3255559,232.773995 L47.2545657,314.619604 L75.5012631,314.619604 L75.5012631,371.852389 L45.5445515,371.852389 C41.4459897,371.852389 38.1230902,375.057425 38.1230902,379.140031 C38.1230902,383.222636 41.4459897,386.765618 45.5445515,386.765618 C49.5008402,386.765618 52.7238749,382.753872 52.9441247,380.028502 L73.5573191,380.028502 C73.7775689,382.753872 77.0019715,387 80.9568922,387 C84.9131809,387 88.1375836,382.753872 88.3564654,380.028502 L108.971028,380.028502 C109.18991,382.753872 112.414312,386.712473 116.370601,386.712473 C120.469163,386.712473 123.792062,383.365718 123.792062,379.283113 C123.792062,375.200507 120.469163,371.852389 116.370601,371.852389" id="Fill-65" fill="#000000"></path>
                        <path d="M130.291662,377 L126,386 L153,386 C152.172576,382.636776 148.992807,380.468677 145.655759,380.99172 L142.419917,381.500703 C140.163307,381.500703 138.632915,379.141384 139.5,377 L130.291662,377 Z" id="Fill-67" fill="#000000"></path>
                        <path d="M155.291662,377 L151,386 L178,386 C177.172576,382.636776 173.992807,380.468677 170.655759,380.99172 L167.419917,381.500703 C165.163307,381.500703 163.632915,379.141384 164.5,377 L155.291662,377 Z" id="Fill-69" fill="#000000"></path>
                        <path d="M151.887839,379 L136.655458,313.758442 L107.284389,299.006538 L89.459961,299.006538 L75,277 L111.320108,281.00008 L149.718229,295.708607 C153.730708,297.245744 156.628989,300.765977 157.343989,304.972093 L169,379 L151.887839,379 Z" id="Fill-71" fill="#1E389D"></path>
                        <path d="M99.4538341,281.303712 L130.124255,297.275565 C133.771356,299.175976 136.204126,302.766695 136.592931,306.827772 L143,379 L127.000124,379 L112.966179,308.007057 L73.8584141,299.007894 C63.4428196,299.007894 55,290.647171 55,280.334529 L55,277 L99.4538341,281.303712 Z" id="Fill-73" fill="#212293"></path>
                        <path d="M101.10796,202.327754 L70.5742433,202.327754 C62.6135789,202.327754 55.2689672,206.536355 51.3435172,213.346491 L28.6428633,246.942439 C25.2977927,251.89318 27.2543434,258.61156 32.757657,261.068714 L64.3656934,275.181495 L70.4150849,261.542334 L49.599635,252.579996 C47.5278316,251.68673 46.8404319,249.128375 48.1960225,247.344544 L55.6696073,237.511879 L55.6696073,280 L110.34738,280 L105.724926,225.834663 L127.651741,245.894 C132.429237,250.689566 140.577873,249.485951 143.711648,243.521854 L163,206.829163 L153.377777,201 L136.336851,228.217603 L116.838574,208.795156 C112.685363,204.65672 107.020146,202.327754 101.10796,202.327754" id="Fill-75" fill="#FA7564"></path>
                        <path d="M107.726728,164.90388 C107.842498,157.674723 101.596279,149.206834 92.554069,146.718312 C83.8349392,144.31827 74.6150349,148.067644 69.8576774,155.946582 L69.0728615,157.246144 C65.9739829,162.379412 65.1743591,168.635281 66.8772616,174.415565 L72.8461703,192.519565 L73.2594438,203.253391 L83.5212821,207 L90.470201,203.253391 L90.07712,191.690058 L97.9952798,191.666555 C103.541492,191.586369 107.997308,186.93698 107.997308,181.238264 L107.997308,181.148401 L108,173.472692 L107.726728,164.90388 Z" id="Fill-77" fill="#FBEFE1"></path>
                        <path d="M112,144.711234 C112,144.711234 96.1616304,137.359864 80.4307087,141.023145 C77.5690573,141.746705 74.9971074,143.000876 72.7379806,144.614759 L69.4968612,140.921158 L69.4968612,147.404256 C63.4879375,153.670975 61.2029687,163.146166 64.537935,171.986002 C66.1768561,176.330119 69.4968612,183.620848 72.2170621,189 L72.2170621,172.965909 L80.1954113,171.430584 L80.3613436,160.127887 C80.3613436,160.127887 95.3618913,160.939652 104.705781,154.401426 L107.783689,160.727408 C107.783689,160.727408 105.709535,148.673587 112,144.711234" id="Fill-79" fill="#000000"></path>
                        <path d="M76,256 L76,256 C76,254.89556 75.0189093,254 73.8089888,254 L64.2036174,254 L61,258 L73.8089888,258 C75.0189093,258 76,257.10444 76,256" id="Fill-85" fill="#FBEFE1"></path>
                        <path d="M77,261.062951 L77,261.062951 C77,260.000586 76.0894309,259.136884 74.9599131,259.125982 L61,259 L61,262.873938 L74.9212751,262.99992 C76.0649602,263.009611 77,262.141064 77,261.062951" id="Fill-87" fill="#FBEFE1"></path>
                        <path d="M76,265.999375 L76,265.999375 C76,264.89528 75.0189093,264 73.8089888,264 L61,264 L61,268 L73.8089888,268 C75.0189093,268 76,267.10472 76,265.999375" id="Fill-89" fill="#FBEFE1"></path>
                        <path d="M85,273.64498 L85,272.35502 C85,271.605568 84.3304188,271 83.504832,271 L76,271 L76,275 L83.504832,275 C84.3304188,275 85,274.394432 85,273.64498" id="Fill-91" fill="#FF63BE"></path>
                        <path d="M63.3069213,271 L59.0268184,271 L55.2776649,269.397407 L55,258.329217 L55.1693079,258.151875 C57.6980902,255.506098 61.2318841,254.316867 64.9688474,254.316867 L65,254 L63.3069213,271 Z" id="Fill-93" fill="#FBEFE1"></path>
                        <polygon id="Fill-95" fill="#FFFFFF" points="263 271 74.8381309 271 2 271 2 283.290323 17.7023613 283.290323 9.17545026 385.709677 13.228466 385.709677 35.3724712 283.290323 74.8381309 283.290323 83.7462932 283.290323 74.1111571 398 78.7708953 398 103.863791 283.290323 202.167869 283.290323 224.311874 385.709677 228.36489 385.709677 219.837979 283.290323 230.586806 283.290323 255.679702 398 260.33944 398 250.704304 283.290323 263 283.290323"></polygon>
                        <path d="M136.571023,256 L240.888925,256 C244.493333,256 247.596069,253.469777 248.309044,249.950825 L260.848131,188.033019 C261.792857,183.36236 258.210261,179 253.428012,179 L149.11011,179 C145.507065,179 142.402966,181.530223 141.689991,185.049175 L129.152267,246.968339 C128.206178,251.63764 131.788774,256 136.571023,256" id="Fill-97" fill="#FFFFFF"></path>
                        <path d="M212.833863,224 L181.012703,224 L194.033866,257.939529 C195.42494,261.564059 192.780807,265.470588 188.936906,265.470588 L169,265.470588 L169,271 L214.304193,271 C222.590512,271 228.243629,262.5165 225.134893,254.746294 L212.833863,224 Z" id="Fill-99" fill="#B3D2EC"></path>
                        <path d="M479.154891,42 L445.845109,42 C424.391235,42 407,58.9115806 407,80.1595338 L407,80.0490095 C407,101.298327 424.391235,118.411853 445.845109,118.411853 L479.154891,118.411853 C479.885036,118.411853 480.609671,118.342264 481.330173,118.302694 L491.052127,127 L491.052127,116.474267 C506.684125,111.496581 518,96.9824221 518,79.8456994 L518,80.1595338 C518,58.9115806 500.607387,42 479.154891,42" id="Fill-103" fill="#FFCA00"></path>
                        <path d="M457.428978,256 L353.111077,256 C349.508032,256 346.403933,253.469777 345.690958,249.950825 L333.15187,188.033019 C332.207145,183.36236 335.789741,179 340.570626,179 L444.891253,179 C448.492935,179 451.597034,181.530223 452.310009,185.049175 L464.847733,246.968339 C465.793822,251.63764 462.211226,256 457.428978,256" id="Fill-105" fill="#FFFFFF"></path>
                        <path d="M382.015823,224 L413.474911,224 L400.601907,257.939529 C399.226661,261.564059 401.840709,265.470588 405.640872,265.470588 L424,265.470588 L424,271 L380.562223,271 C372.370189,271 366.782746,262.5165 369.854759,254.746294 L382.015823,224 Z" id="Fill-107" fill="#B3D2EC"></path>
                    </g>
                </g>
            </g>
        </g>
    </g>
</svg>
